<?xml version="1.0" encoding="utf-8"?>
<!-- Generator: Adobe Illustrator 27.9.0, SVG Export Plug-In . SVG Version: 6.00 Build 0)  -->
<svg version="1.1" id="Layer_1" xmlns="http://www.w3.org/2000/svg" xmlns:xlink="http://www.w3.org/1999/xlink" x="0px" y="0px"
	 viewBox="0 0 1920 1080" style="enable-background:new 0 0 1920 1080;" xml:space="preserve">
<style type="text/css">
	.st0{fill:url(#SVGID_1_);}
	.st1{fill:url(#SVGID_00000087394847689387259110000004676756348050530199_);}
	.st2{fill:url(#SVGID_00000143581989665283887590000018320168047655540370_);}
	.st3{fill:url(#SVGID_00000003805760585464112240000004154096240328083621_);}
	.st4{fill:url(#SVGID_00000162346414945079040990000013808963802209219969_);}
	.st5{fill:url(#SVGID_00000110431090327566954610000017725129447525568164_);}
	.st6{fill:url(#SVGID_00000039099257235476998640000001542358238485267383_);}
	.st7{fill:url(#SVGID_00000028317993296621755170000016417504756192951992_);}
</style>
<g>
	<g>
		<linearGradient id="SVGID_1_" gradientUnits="userSpaceOnUse" x1="320.9227" y1="547.0657" x2="1612.3253" y2="547.0657">
			<stop  offset="0.1084" style="stop-color:#5B86E5"/>
			<stop  offset="0.8678" style="stop-color:#36D1DC"/>
		</linearGradient>
		<path class="st0" d="M357.64,544.07h-99.65l-17.12,48.63h-40.75l85.27-238.34h45.2l85.27,238.34h-41.09L357.64,544.07z
			 M346.68,512.22l-38.7-110.61l-39.04,110.61H346.68z"/>
		
			<linearGradient id="SVGID_00000165927380745836481940000016449736303120605618_" gradientUnits="userSpaceOnUse" x1="320.9227" y1="547.0657" x2="1612.3253" y2="547.0657">
			<stop  offset="0.1084" style="stop-color:#5B86E5"/>
			<stop  offset="0.8678" style="stop-color:#36D1DC"/>
		</linearGradient>
		<path style="fill:url(#SVGID_00000165927380745836481940000016449736303120605618_);" d="M481.43,587.73
			c-11.76-5.36-21.06-12.67-27.91-21.92c-6.85-9.25-10.5-19.57-10.96-30.99h40.41c0.69,7.99,4.51,14.67,11.47,20.03
			c6.96,5.37,15.69,8.05,26.2,8.05c10.96,0,19.46-2.11,25.51-6.33c6.05-4.22,9.08-9.64,9.08-16.27c0-7.07-3.37-12.33-10.1-15.75
			c-6.74-3.42-17.41-7.19-32.02-11.3c-14.16-3.88-25.68-7.65-34.59-11.3c-8.9-3.65-16.61-9.25-23.12-16.78s-9.76-17.46-9.76-29.79
			c0-10.04,2.96-19.23,8.9-27.57c5.93-8.33,14.44-14.9,25.51-19.69c11.07-4.79,23.8-7.19,38.18-7.19c21.46,0,38.75,5.43,51.88,16.27
			c13.12,10.85,20.15,25.63,21.06,44.35h-39.04c-0.69-8.44-4.11-15.18-10.27-20.2c-6.16-5.02-14.5-7.53-25-7.53
			c-10.27,0-18.15,1.94-23.63,5.82c-5.48,3.88-8.22,9.02-8.22,15.41c0,5.02,1.82,9.25,5.48,12.67c3.65,3.42,8.1,6.11,13.36,8.05
			c5.25,1.94,13.01,4.4,23.29,7.36c13.7,3.65,24.94,7.36,33.73,11.13c8.79,3.77,16.38,9.31,22.77,16.61
			c6.39,7.31,9.7,17.01,9.93,29.11c0,10.73-2.97,20.32-8.9,28.77c-5.94,8.45-14.33,15.07-25.17,19.86
			c-10.85,4.79-23.58,7.19-38.18,7.19C506.48,595.78,493.19,593.09,481.43,587.73z"/>
		
			<linearGradient id="SVGID_00000174560817481409458300000000001117419784903336_" gradientUnits="userSpaceOnUse" x1="320.9227" y1="547.0657" x2="1612.3253" y2="547.0657">
			<stop  offset="0.1084" style="stop-color:#5B86E5"/>
			<stop  offset="0.8678" style="stop-color:#36D1DC"/>
		</linearGradient>
		<path style="fill:url(#SVGID_00000174560817481409458300000000001117419784903336_);" d="M701.79,409.83
			c11.41-5.93,24.31-8.9,38.7-8.9c16.44,0,31.45,4.06,45.03,12.16c13.58,8.11,24.25,19.47,32.02,34.07
			c7.76,14.61,11.64,31.39,11.64,50.34c0,18.95-3.88,35.9-11.64,50.85c-7.76,14.96-18.44,26.6-32.02,34.93
			c-13.59,8.34-28.59,12.5-45.03,12.5c-14.38,0-27.17-2.91-38.35-8.73c-11.19-5.82-20.32-13.07-27.4-21.74v117.12H635.7V404.01
			h39.04v27.74C681.36,423.07,690.38,415.77,701.79,409.83z M781.41,463.76c-5.37-9.47-12.45-16.66-21.23-21.57
			c-8.79-4.91-18.21-7.36-28.25-7.36c-9.82,0-19.12,2.51-27.91,7.53c-8.79,5.02-15.87,12.33-21.23,21.92
			c-5.37,9.59-8.05,20.89-8.05,33.9c0,13.01,2.68,24.37,8.05,34.07c5.36,9.71,12.44,17.07,21.23,22.09
			c8.79,5.02,18.09,7.53,27.91,7.53c10.04,0,19.46-2.57,28.25-7.71c8.79-5.14,15.86-12.61,21.23-22.43
			c5.36-9.81,8.05-21.23,8.05-34.24S786.77,473.24,781.41,463.76z"/>
		
			<linearGradient id="SVGID_00000101094787263317945770000008465160922657367949_" gradientUnits="userSpaceOnUse" x1="320.9227" y1="547.0657" x2="1612.3253" y2="547.0657">
			<stop  offset="0.1084" style="stop-color:#5B86E5"/>
			<stop  offset="0.8678" style="stop-color:#36D1DC"/>
		</linearGradient>
		<path style="fill:url(#SVGID_00000101094787263317945770000008465160922657367949_);" d="M869.93,371.82
			c-4.79-4.79-7.19-10.73-7.19-17.81c0-7.07,2.4-13.01,7.19-17.81c4.79-4.79,10.73-7.19,17.81-7.19c6.85,0,12.67,2.4,17.46,7.19
			c4.79,4.79,7.19,10.73,7.19,17.81c0,7.08-2.4,13.01-7.19,17.81c-4.79,4.79-10.62,7.19-17.46,7.19
			C880.66,379.01,874.73,376.61,869.93,371.82z M906.92,404.01V592.7h-39.04V404.01H906.92z"/>
		
			<linearGradient id="SVGID_00000072959801880388149870000012698359287709048456_" gradientUnits="userSpaceOnUse" x1="320.9227" y1="547.0657" x2="1612.3253" y2="547.0657">
			<stop  offset="0.1084" style="stop-color:#5B86E5"/>
			<stop  offset="0.8678" style="stop-color:#36D1DC"/>
		</linearGradient>
		<path style="fill:url(#SVGID_00000072959801880388149870000012698359287709048456_);" d="M1020.09,408.97
			c9.47-5.36,20.72-8.05,33.73-8.05v40.41h-9.93c-15.3,0-26.88,3.88-34.76,11.64c-7.88,7.76-11.81,21.23-11.81,40.41v99.31h-39.04
			V404.01h39.04v27.4C1003.03,421.81,1010.62,414.34,1020.09,408.97z"/>
		
			<linearGradient id="SVGID_00000111180210190589077870000015190410724317588145_" gradientUnits="userSpaceOnUse" x1="320.9227" y1="547.0657" x2="1612.3253" y2="547.0657">
			<stop  offset="0.1084" style="stop-color:#5B86E5"/>
			<stop  offset="0.8678" style="stop-color:#36D1DC"/>
		</linearGradient>
		<path style="fill:url(#SVGID_00000111180210190589077870000015190410724317588145_);" d="M1261.34,512.91h-144.17
			c1.14,15.07,6.73,27.17,16.78,36.3c10.04,9.13,22.37,13.7,36.98,13.7c21,0,35.84-8.79,44.52-26.37h42.12
			c-5.71,17.35-16.04,31.56-30.99,42.63c-14.96,11.08-33.51,16.61-55.65,16.61c-18.04,0-34.19-4.05-48.46-12.16
			c-14.27-8.1-25.46-19.52-33.56-34.24c-8.11-14.73-12.16-31.79-12.16-51.2c0-19.4,3.94-36.47,11.81-51.2s18.95-26.08,33.22-34.07
			c14.26-7.99,30.65-11.99,49.14-11.99c17.81,0,33.67,3.88,47.6,11.64c13.92,7.76,24.77,18.66,32.53,32.7
			c7.76,14.04,11.64,30.19,11.64,48.46C1262.71,500.81,1262.25,507.2,1261.34,512.91z M1221.96,481.4
			c-0.23-14.38-5.37-25.91-15.41-34.59c-10.05-8.67-22.49-13.01-37.33-13.01c-13.47,0-25,4.28-34.59,12.84
			c-9.59,8.56-15.3,20.15-17.12,34.76H1221.96z"/>
		
			<linearGradient id="SVGID_00000044874345965587704360000015026748288798862237_" gradientUnits="userSpaceOnUse" x1="320.9227" y1="547.0657" x2="1612.3253" y2="547.0657">
			<stop  offset="0.1084" style="stop-color:#5B86E5"/>
			<stop  offset="0.8678" style="stop-color:#36D1DC"/>
		</linearGradient>
		<path style="fill:url(#SVGID_00000044874345965587704360000015026748288798862237_);" d="M1428.79,354.7v151.7
			c0,18.04,4.73,31.62,14.21,40.75c9.47,9.13,22.66,13.7,39.55,13.7c17.12,0,30.42-4.56,39.89-13.7
			c9.47-9.13,14.21-22.71,14.21-40.75V354.7h39.04v151.02c0,19.41-4.23,35.84-12.67,49.31c-8.45,13.47-19.75,23.52-33.9,30.13
			c-14.16,6.62-29.79,9.93-46.91,9.93c-17.12,0-32.7-3.31-46.74-9.93c-14.04-6.62-25.17-16.66-33.39-30.13
			c-8.22-13.47-12.33-29.91-12.33-49.31V354.7H1428.79z"/>
		
			<linearGradient id="SVGID_00000102545660156972208740000002921396824626882713_" gradientUnits="userSpaceOnUse" x1="320.9227" y1="547.0657" x2="1612.3253" y2="547.0657">
			<stop  offset="0.1084" style="stop-color:#5B86E5"/>
			<stop  offset="0.8678" style="stop-color:#36D1DC"/>
		</linearGradient>
		<path style="fill:url(#SVGID_00000102545660156972208740000002921396824626882713_);" d="M1665.42,354.7v238h-39.04v-238H1665.42z
			"/>
	</g>
</g>
</svg>
